<svg width="18" height="18" viewBox="0 0 18 18" fill="none" xmlns="http://www.w3.org/2000/svg">
<path d="M16.4042 10.5543L15.2383 10.0524V5.58468C15.2389 5.37282 15.1952 5.16825 15.1168 4.98326C14.9993 4.70507 14.8039 4.47029 14.5577 4.30376C14.3119 4.13754 14.0114 4.03931 13.6934 4.03956H11.318V0.972527C11.318 0.839602 11.2905 0.710578 11.2407 0.593895C11.1668 0.418711 11.0442 0.271195 10.8892 0.166254C10.7347 0.0615938 10.545 0 10.3452 0H7.65679C7.52355 0 7.39428 0.0271758 7.27784 0.0766758C7.10266 0.150855 6.9549 0.27341 6.8502 0.428203C6.74554 0.582961 6.68395 0.77298 6.68395 0.972527V4.03956H4.30851C4.09638 4.03956 3.89209 4.08294 3.70681 4.1613C3.42862 4.27915 3.19409 4.4742 3.02731 4.7205C2.86106 4.96649 2.76311 5.26651 2.76311 5.58471V10.0525L1.59775 10.5543C1.01954 10.803 0.739097 11.4621 0.960229 12.0512L3.41688 18H9.00071H14.5851L17.0412 12.0512C17.2628 11.4621 16.9818 10.803 16.4042 10.5543ZM7.75361 1.90083H10.2483V2.97021H7.75361V1.90083ZM14.1692 9.59179L9.66675 7.65316C9.24192 7.47011 8.76 7.47011 8.33461 7.65316L3.83271 9.59179V5.58468C3.83271 5.51753 3.84557 5.45621 3.86966 5.39968C3.90548 5.31517 3.96648 5.24127 4.04262 5.1898C4.1193 5.13861 4.20775 5.10922 4.30851 5.10894H13.6934C13.7606 5.10894 13.8222 5.12209 13.8782 5.14617C13.9632 5.182 14.0371 5.24271 14.0886 5.31911C14.1396 5.39582 14.1692 5.48423 14.1692 5.58468V9.59179H14.1692Z" fill="white"/>
<path d="M7.04048 6H5.37695V7.66324H7.04048V6Z" fill="white"/>
<path d="M12.6239 6H10.9609V7.66324H12.6239V6Z" fill="white"/>
</svg>
