<svg width="10" height="10" viewBox="0 0 10 10" fill="none" xmlns="http://www.w3.org/2000/svg">
<path d="M2.31175 8.5721C2.52082 8.5721 2.69093 8.41349 2.69093 8.21841V5.57336C2.69093 5.37836 2.52082 5.21973 2.31175 5.21973C2.10262 5.21973 1.9325 5.37836 1.9325 5.57336V8.21841C1.9325 8.41349 2.10262 8.5721 2.31175 8.5721Z" fill="#333333"/>
<path d="M4.10403 8.5721C4.31316 8.5721 4.48329 8.41349 4.48329 8.21841V5.57336C4.48329 5.37836 4.31316 5.21973 4.10403 5.21973C3.89496 5.21973 3.72485 5.37836 3.72485 5.57336V8.21841C3.72487 8.41349 3.89498 8.5721 4.10403 8.5721Z" fill="#333333"/>
<path d="M5.89684 8.5721C6.10588 8.5721 6.27599 8.41349 6.27599 8.21841V5.57336C6.27599 5.37836 6.10588 5.21973 5.89684 5.21973C5.68768 5.21973 5.51758 5.37836 5.51758 5.57336V8.21841C5.51758 8.41349 5.68768 8.5721 5.89684 8.5721Z" fill="#333333"/>
<path d="M7.68919 8.5721C7.89826 8.5721 8.06837 8.41349 8.06837 8.21841V5.57336C8.06837 5.37836 7.89826 5.21973 7.68919 5.21973C7.48006 5.21973 7.30994 5.37836 7.30994 5.57336V8.21841C7.30996 8.41349 7.48006 8.5721 7.68919 8.5721Z" fill="#333333"/>
<path d="M9.02148 3.78954H8.8815V3.42582C8.8815 3.27965 8.75475 3.16002 8.59807 3.16002H8.37805C8.22135 3.16002 8.09297 3.27965 8.09297 3.42582V3.53172L8.09133 3.58344L5.98285 2.40348L5.87387 2.34229V2.34242L5.87094 2.34082L5.82927 2.41391C5.78927 2.48387 5.73927 2.5491 5.68093 2.60822L5.62454 2.66576L5.6126 2.67705L5.61317 2.67736L5.61086 2.67973L6.67463 3.2743L7.59065 3.78952H4.71609L2.28005 3.78684L3.93189 2.86352L4.2582 2.68178L4.25772 2.68133L4.26067 2.67973L4.19071 2.60824C4.13237 2.54912 4.08237 2.48389 4.04237 2.41393L4.00416 2.34693L4.00244 2.3435L4.00227 2.34365L4.00064 2.34082L2.61997 3.11328L1.90867 3.50942V3.42578C1.90867 3.27961 1.78029 3.15998 1.62361 3.15998H1.40359C1.24688 3.15998 1.1185 3.27961 1.1185 3.42578V3.7895H0.978434C0.440045 3.7895 0 4.19981 0 4.7018V9.08658C0 9.5886 0.440045 9.99899 0.978434 9.99899H9.02148C9.56153 9.99899 10 9.5886 10 9.08658V4.7018C10 4.19985 9.56153 3.78954 9.02148 3.78954ZM0.863458 4.70186C0.863458 4.64282 0.915175 4.59468 0.978434 4.59468H9.03483L9.11648 4.64128C9.12816 4.65524 9.13816 4.67546 9.13816 4.70186V9.08664C9.13816 9.14571 9.08652 9.19385 9.02148 9.19385H0.978434C0.915175 9.19385 0.863458 9.14571 0.863458 9.08664V4.70186Z" fill="#333333"/>
<path d="M3.97095 0.863421V0.866546H4.66528V1.25008C4.36679 1.35391 4.1642 1.62354 4.1642 1.92346C4.1642 2.03737 4.1921 2.14553 4.24618 2.24641C4.28946 2.32719 4.34977 2.3993 4.42251 2.45989C4.56325 2.57806 4.74572 2.64298 4.93587 2.64298C5.12456 2.64298 5.307 2.57806 5.44776 2.45989C5.52195 2.40075 5.58079 2.32866 5.62556 2.24641C5.67972 2.14553 5.70754 2.03737 5.70754 1.92346V1.85135H5.16473V1.92346C5.16473 1.9494 5.16017 1.97542 5.14936 2.00135C5.12458 2.06186 5.06892 2.10946 5.00085 2.12823C4.98072 2.13395 4.95912 2.13686 4.93587 2.13686C4.9127 2.13686 4.89102 2.13395 4.86943 2.12823C4.8029 2.10946 4.74727 2.06186 4.72255 1.99991C4.71168 1.97542 4.70701 1.9494 4.70701 1.92346C4.70701 1.8052 4.8091 1.70862 4.93587 1.70862H5.20654V0.866546H5.9009V0H3.97095V0.860745V0.863421ZM4.29258 0.432521C4.29258 0.360411 4.35599 0.302735 4.43332 0.302735C4.51063 0.302735 4.57249 0.360411 4.57249 0.432521C4.57249 0.504611 4.51063 0.562287 4.43332 0.562287C4.35601 0.562287 4.29258 0.504611 4.29258 0.432521ZM5.29933 0.432521C5.29933 0.360411 5.36121 0.302735 5.43844 0.302735C5.51575 0.302735 5.57771 0.360411 5.57771 0.432521C5.57771 0.504611 5.51575 0.562287 5.43844 0.562287C5.36119 0.562287 5.29933 0.504611 5.29933 0.432521Z" fill="#333333"/>
</svg>
