<svg width="13" height="12" viewBox="0 0 13 12" fill="none" xmlns="http://www.w3.org/2000/svg">
<path d="M12.3539 6.02148V9.67205C12.3556 9.85326 12.3216 10.033 12.2539 10.2011C12.1861 10.3692 12.0859 10.5223 11.959 10.6516C11.8321 10.781 11.6809 10.8841 11.5142 10.955C11.3474 11.0259 11.1683 11.0633 10.9871 11.065H2.36722C2.18414 11.0634 2.00323 11.0253 1.83502 10.953C1.66681 10.8807 1.51466 10.7756 1.38746 10.6439C1.26025 10.5123 1.16052 10.3566 1.09407 10.186C1.02763 10.0154 0.995801 9.83325 1.00044 9.65022V6.02148" stroke="#7D7D7D" stroke-linecap="round" stroke-linejoin="round"/>
<path d="M6.67627 8.05223V1" stroke="#7D7D7D" stroke-linecap="round" stroke-linejoin="round"/>
<path d="M4.49805 6L6.67703 8.07419L8.85602 6" stroke="#7D7D7D" stroke-linecap="round" stroke-linejoin="round"/>
</svg>
