<svg width="13" height="13" viewBox="0 0 13 13" fill="none" xmlns="http://www.w3.org/2000/svg">
<path d="M6.5 9.06934C5.575 9.06934 4.78125 8.56309 4.34375 7.81934H3.3C3.8 9.10059 5.04375 10.0068 6.5 10.0068C7.95625 10.0068 9.2 9.10059 9.7 7.81934H8.65625C8.225 8.56309 7.425 9.06934 6.5 9.06934ZM6.49375 0.319336C3.04375 0.319336 0.25 3.11934 0.25 6.56934C0.25 10.0193 3.04375 12.8193 6.49375 12.8193C9.95 12.8193 12.75 10.0193 12.75 6.56934C12.75 3.11934 9.95 0.319336 6.49375 0.319336ZM6.5 11.5693C3.7375 11.5693 1.5 9.33184 1.5 6.56934C1.5 3.80684 3.7375 1.56934 6.5 1.56934C9.2625 1.56934 11.5 3.80684 11.5 6.56934C11.5 9.33184 9.2625 11.5693 6.5 11.5693Z" fill="#7D7D7D"/>
</svg>
