<svg width="9" height="18" viewBox="0 0 9 18" fill="none" xmlns="http://www.w3.org/2000/svg">
<path d="M7.375 4.56934V13.1943C7.375 14.8518 6.0325 16.1943 4.375 16.1943C2.7175 16.1943 1.375 14.8518 1.375 13.1943V3.81934C1.375 2.78434 2.215 1.94434 3.25 1.94434C4.285 1.94434 5.125 2.78434 5.125 3.81934V11.6943C5.125 12.1068 4.7875 12.4443 4.375 12.4443C3.9625 12.4443 3.625 12.1068 3.625 11.6943V4.56934H2.5V11.6943C2.5 12.7293 3.34 13.5693 4.375 13.5693C5.41 13.5693 6.25 12.7293 6.25 11.6943V3.81934C6.25 2.16184 4.9075 0.819336 3.25 0.819336C1.5925 0.819336 0.25 2.16184 0.25 3.81934V13.1943C0.25 15.4743 2.095 17.3193 4.375 17.3193C6.655 17.3193 8.5 15.4743 8.5 13.1943V4.56934H7.375Z" fill="#7D7D7D"/>
</svg>
