<svg width="13" height="13" viewBox="0 0 13 13" fill="none" xmlns="http://www.w3.org/2000/svg">
<path d="M3.00524 11.143C3.27703 11.143 3.49817 10.9368 3.49817 10.6832V7.24464C3.49817 6.99114 3.27703 6.78491 3.00524 6.78491C2.73337 6.78491 2.51221 6.99114 2.51221 7.24464V10.6832C2.51221 10.9368 2.73337 11.143 3.00524 11.143Z" fill="#1877B7"/>
<path d="M5.33521 11.143C5.60708 11.143 5.82825 10.9368 5.82825 10.6832V7.24464C5.82825 6.99114 5.60708 6.78491 5.33521 6.78491C5.06342 6.78491 4.84229 6.99114 4.84229 7.24464V10.6832C4.84231 10.9368 5.06345 11.143 5.33521 11.143Z" fill="#1877B7"/>
<path d="M7.66589 11.143C7.93765 11.143 8.15879 10.9368 8.15879 10.6832V7.24464C8.15879 6.99114 7.93765 6.78491 7.66589 6.78491C7.39399 6.78491 7.17285 6.99114 7.17285 7.24464V10.6832C7.17285 10.9368 7.39399 11.143 7.66589 11.143Z" fill="#1877B7"/>
<path d="M9.99621 11.143C10.268 11.143 10.4891 10.9368 10.4891 10.6832V7.24464C10.4891 6.99114 10.268 6.78491 9.99621 6.78491C9.72434 6.78491 9.50317 6.99114 9.50317 7.24464V10.6832C9.5032 10.9368 9.72434 11.143 9.99621 11.143Z" fill="#1877B7"/>
<path d="M11.7279 4.92752H11.5459V4.45469C11.5459 4.26467 11.3812 4.10915 11.1775 4.10915H10.8915C10.6877 4.10915 10.5209 4.26467 10.5209 4.45469V4.59236L10.5187 4.6596L7.77771 3.12564L7.63603 3.04609V3.04627L7.63222 3.04419L7.57806 3.1392C7.52604 3.23015 7.46105 3.31496 7.38521 3.39181L7.3119 3.46661L7.29638 3.48129L7.29712 3.4817L7.29412 3.48477L8.67702 4.25771L9.86784 4.92749H6.13092L2.96407 4.92402L5.11146 3.7237L5.53566 3.48743L5.53503 3.48685L5.53887 3.48477L5.44792 3.39184C5.37209 3.31498 5.30709 3.23018 5.25508 3.13923L5.20541 3.05214L5.20318 3.04767L5.20296 3.04787L5.20083 3.04419L3.40596 4.04839L2.48127 4.56337V4.45464C2.48127 4.26462 2.31437 4.1091 2.11069 4.1091H1.82466C1.62095 4.1091 1.45405 4.26462 1.45405 4.45464V4.92747H1.27196C0.572058 4.92747 0 5.46088 0 6.11347V11.8137C0 12.4663 0.572058 12.9998 1.27196 12.9998H11.7279C12.43 12.9998 13 12.4663 13 11.8137V6.11347C13 5.46093 12.43 4.92752 11.7279 4.92752ZM1.1225 6.11355C1.1225 6.03679 1.18973 5.9742 1.27196 5.9742H11.7453L11.8514 6.03478C11.8666 6.05294 11.8796 6.07922 11.8796 6.11355V11.8138C11.8796 11.8905 11.8125 11.9531 11.7279 11.9531H1.27196C1.18973 11.9531 1.1225 11.8905 1.1225 11.8138V6.11355Z" fill="#1877B7"/>
<path d="M5.16211 1.12245V1.12651H6.06475V1.62511C5.67671 1.76008 5.41334 2.1106 5.41334 2.5005C5.41334 2.64858 5.44961 2.78919 5.51992 2.92034C5.57618 3.02535 5.65457 3.1191 5.74914 3.19786C5.93211 3.35147 6.16931 3.43587 6.41651 3.43587C6.6618 3.43587 6.89898 3.35147 7.08197 3.19786C7.17842 3.12097 7.25491 3.02726 7.3131 2.92034C7.38352 2.78919 7.41968 2.64858 7.41968 2.5005V2.40676H6.71403V2.5005C6.71403 2.53422 6.70809 2.56804 6.69404 2.60176C6.66183 2.68042 6.58948 2.7423 6.50098 2.7667C6.47481 2.77414 6.44673 2.77792 6.41651 2.77792C6.38639 2.77792 6.35821 2.77414 6.33013 2.7667C6.24365 2.7423 6.17133 2.68042 6.13919 2.59988C6.12506 2.56804 6.11899 2.53422 6.11899 2.5005C6.11899 2.34676 6.25171 2.2212 6.41651 2.2212H6.76838V1.12651H7.67104V0H5.16211V1.11897V1.12245ZM5.58023 0.562277C5.58023 0.468535 5.66266 0.393556 5.76319 0.393556C5.8637 0.393556 5.94411 0.468535 5.94411 0.562277C5.94411 0.655994 5.8637 0.730973 5.76319 0.730973C5.66269 0.730973 5.58023 0.655994 5.58023 0.562277ZM6.88901 0.562277C6.88901 0.468535 6.96945 0.393556 7.06985 0.393556C7.17036 0.393556 7.25091 0.468535 7.25091 0.562277C7.25091 0.655994 7.17036 0.730973 7.06985 0.730973C6.96942 0.730973 6.88901 0.655994 6.88901 0.562277Z" fill="#1877B7"/>
</svg>
