<svg width="14" height="13" viewBox="0 0 14 13" fill="none" xmlns="http://www.w3.org/2000/svg">
<path d="M3.84419 11.143C4.1148 11.143 4.33499 10.9368 4.33499 10.6832V7.24464C4.33499 6.99114 4.1148 6.78491 3.84419 6.78491C3.57349 6.78491 3.35327 6.99114 3.35327 7.24464V10.6832C3.35327 10.9368 3.57349 11.143 3.84419 11.143Z" fill="#C1C1C1"/>
<path d="M6.16416 11.143C6.43487 11.143 6.65509 10.9368 6.65509 10.6832V7.24464C6.65509 6.99114 6.43487 6.78491 6.16416 6.78491C5.89353 6.78491 5.67334 6.99114 5.67334 7.24464V10.6832C5.67337 10.9368 5.89356 11.143 6.16416 11.143Z" fill="#C1C1C1"/>
<path d="M8.48481 11.143C8.7554 11.143 8.97559 10.9368 8.97559 10.6832V7.24464C8.97559 6.99114 8.7554 6.78491 8.48481 6.78491C8.21408 6.78491 7.9939 6.99114 7.9939 7.24464V10.6832C7.9939 10.9368 8.21408 11.143 8.48481 11.143Z" fill="#C1C1C1"/>
<path d="M10.8051 11.143C11.0758 11.143 11.296 10.9368 11.296 10.6832V7.24464C11.296 6.99114 11.0758 6.78491 10.8051 6.78491C10.5344 6.78491 10.3142 6.99114 10.3142 7.24464V10.6832C10.3142 10.9368 10.5344 11.143 10.8051 11.143Z" fill="#C1C1C1"/>
<path d="M12.5295 4.92752H12.3483V4.45469C12.3483 4.26467 12.1842 4.10915 11.9814 4.10915H11.6966C11.4938 4.10915 11.3276 4.26467 11.3276 4.45469V4.59236L11.3255 4.6596L8.59619 3.12564L8.45512 3.04609V3.04627L8.45133 3.04419L8.3974 3.1392C8.34561 3.23015 8.28089 3.31496 8.20538 3.39181L8.13239 3.46661L8.11693 3.48129L8.11766 3.4817L8.11468 3.48477L9.49166 4.25771L10.6774 4.92749H6.95646L3.80317 4.92402L5.94137 3.7237L6.36375 3.48743L6.36313 3.48685L6.36695 3.48477L6.27639 3.39184C6.20088 3.31498 6.13616 3.23018 6.08437 3.13923L6.03491 3.05214L6.03269 3.04767L6.03247 3.04787L6.03036 3.04419L4.24318 4.04839L3.32245 4.56337V4.45464C3.32245 4.26462 3.15627 4.1091 2.95345 4.1091H2.66865C2.46581 4.1091 2.29963 4.26462 2.29963 4.45464V4.92747H2.11832C1.42141 4.92747 0.851807 5.46088 0.851807 6.11347V11.8137C0.851807 12.4663 1.42141 12.9998 2.11832 12.9998H12.5295C13.2285 12.9998 13.7961 12.4663 13.7961 11.8137V6.11347C13.7961 5.46093 13.2285 4.92752 12.5295 4.92752ZM1.96949 6.11355C1.96949 6.03679 2.03644 5.9742 2.11832 5.9742H12.5468L12.6525 6.03478C12.6676 6.05294 12.6805 6.07922 12.6805 6.11355V11.8138C12.6805 11.8905 12.6137 11.9531 12.5295 11.9531H2.11832C2.03644 11.9531 1.96949 11.8905 1.96949 11.8138V6.11355Z" fill="#C1C1C1"/>
<path d="M5.99182 1.12245V1.12651H6.89058V1.62511C6.50421 1.76008 6.24197 2.1106 6.24197 2.5005C6.24197 2.64858 6.27809 2.78919 6.34809 2.92034C6.40411 3.02535 6.48217 3.1191 6.57634 3.19786C6.75851 3.35147 6.9947 3.43587 7.24084 3.43587C7.48508 3.43587 7.72124 3.35147 7.90344 3.19786C7.99948 3.12098 8.07564 3.02726 8.13358 2.92034C8.2037 2.78919 8.2397 2.64858 8.2397 2.5005V2.40676H7.53708V2.5005C7.53708 2.53422 7.53117 2.56804 7.51718 2.60176C7.4851 2.68042 7.41306 2.7423 7.32494 2.7667C7.29889 2.77414 7.27093 2.77792 7.24084 2.77792C7.21085 2.77792 7.18279 2.77414 7.15483 2.7667C7.06872 2.7423 6.99671 2.68042 6.96471 2.59988C6.95064 2.56804 6.94459 2.53422 6.94459 2.5005C6.94459 2.34676 7.07675 2.2212 7.24084 2.2212H7.5912V1.12651H8.48999V0H5.99182V1.11897V1.12245ZM6.40815 0.562277C6.40815 0.468535 6.49022 0.393556 6.59033 0.393556C6.6904 0.393556 6.77047 0.468535 6.77047 0.562277C6.77047 0.655994 6.6904 0.730973 6.59033 0.730973C6.49025 0.730973 6.40815 0.655994 6.40815 0.562277ZM7.71131 0.562277C7.71131 0.468535 7.79141 0.393556 7.89138 0.393556C7.99145 0.393556 8.07165 0.468535 8.07165 0.562277C8.07165 0.655994 7.99145 0.730973 7.89138 0.730973C7.79138 0.730973 7.71131 0.655994 7.71131 0.562277Z" fill="#C1C1C1"/>
</svg>
