<svg width="19" height="19" viewBox="0 0 19 19" fill="none" xmlns="http://www.w3.org/2000/svg">
<path d="M10.7865 17.5438C10.6631 17.8913 10.4351 18.192 10.1339 18.4047C9.83262 18.6174 9.47292 18.7316 9.10417 18.7316C8.73541 18.7316 8.37571 18.6174 8.07448 18.4047C7.77325 18.192 7.54527 17.8913 7.42188 17.5438" stroke="black" stroke-linecap="round" stroke-linejoin="round"/>
<path d="M13.8542 9.03334C13.8539 8.05132 13.5492 7.09353 12.9821 6.2918C12.415 5.49006 11.6134 4.88381 10.6875 4.55647C10.6403 4.17296 10.4544 3.81996 10.165 3.56398C9.87554 3.30799 9.50247 3.16669 9.11606 3.16669C8.72966 3.16669 8.35659 3.30799 8.06714 3.56398C7.77769 3.81996 7.59184 4.17296 7.5446 4.55647C6.6143 4.87984 5.80753 5.4844 5.23594 6.28646C4.66435 7.08853 4.35622 8.04844 4.35419 9.03334V11.4083C4.35419 12.0417 3.16669 12.9917 3.16669 13.7833V15.3667H15.0417V13.7833C15.0417 13.1421 14.25 12.4177 13.969 11.8042" stroke="black" stroke-linecap="round" stroke-linejoin="round"/>
</svg>
