<svg xmlns="http://www.w3.org/2000/svg" viewBox="0 0 461.3 46.82"><defs><style>.cls-1{fill:#dbae44;}</style></defs><g id="Layer_2" data-name="Layer 2"><g id="Layer_1-2" data-name="Layer 1"><rect class="cls-1" x="322.02" y="0.63" width="9.73" height="45.93"/><polygon class="cls-1" points="451.57 0 451.57 18.33 409.28 18.33 409.28 0 399.55 0 399.55 46.56 409.28 46.56 409.28 28.06 451.57 28.06 451.57 46.56 461.3 46.56 461.3 0 451.57 0"/><polygon class="cls-1" points="191.74 10.48 217.18 10.48 211.39 46.65 221.01 46.65 227.49 10.48 249.92 10.48 254.25 0.76 196.07 0.76 191.74 10.48"/><path class="cls-1" d="M48.18.81H0L.07,46.57H9.73l-.07-10H48.18c7.44,0,13.5-6.94,13.5-14.38V13.43C61.68,6,55.62.81,48.18.81ZM52,10.48V26.91H9.66V10.48Z"/><path class="cls-1" d="M107.24.52h-24C73.1.52,64.81,8.42,64.81,18.13V29c0,9.82,8.29,17.81,18.47,17.81h24c10.19,0,18.47-8,18.47-17.81V18.13C125.71,8.42,117.43.52,107.24.52Zm7.27,10.26,0,25.75H76V10.78Z"/><path class="cls-1" d="M304.11.81H255.93l0,45.78h9.64v-10H297.9l6.44,10h12.87L309.9,35.26a13.52,13.52,0,0,0,7.71-12.19V14.32A13.52,13.52,0,0,0,304.11.81ZM308,10.48V26.91H265.59V10.48Z"/><path class="cls-1" d="M177.34.81H129.16l0,45.78h9.64v-10h32.3l6.45,10h12.87l-7.32-11.31a13.5,13.5,0,0,0,7.71-12.19V14.32A13.52,13.52,0,0,0,177.34.81Zm3.84,9.67V26.91H138.83V10.48Z"/><path class="cls-1" d="M336.46,14V32.64c0,7.81,6.34,13.93,14.42,13.93h44.5v-11H347.51V10.63h47.87V0h-44.5A14.07,14.07,0,0,0,336.46,14Z"/></g></g></svg>