<svg width="19" height="19" viewBox="0 0 19 19" fill="none" xmlns="http://www.w3.org/2000/svg">
<path d="M9.49999 17.4167C9.49999 17.4167 3.16665 13.8542 3.16665 8.075C3.14552 7.23007 3.29373 6.38945 3.60253 5.60269C3.91134 4.81592 4.3745 4.09893 4.96472 3.49395C5.55494 2.88897 6.26029 2.40825 7.03919 2.08012C7.81809 1.75198 8.65479 1.58307 9.49999 1.58334C10.3452 1.58307 11.1819 1.75198 11.9608 2.08012C12.7397 2.40825 13.445 2.88897 14.0353 3.49395C14.6255 4.09893 15.0886 4.81592 15.3974 5.60269C15.7062 6.38945 15.8544 7.23007 15.8333 8.075C15.8333 13.8542 9.49999 17.4167 9.49999 17.4167Z" stroke="#606060" stroke-linecap="round" stroke-linejoin="round"/>
<path d="M9.5 10.2917C10.8117 10.2917 11.875 9.22834 11.875 7.91666C11.875 6.60499 10.8117 5.54166 9.5 5.54166C8.18832 5.54166 7.125 6.60499 7.125 7.91666C7.125 9.22834 8.18832 10.2917 9.5 10.2917Z" stroke="#606060" stroke-linecap="round" stroke-linejoin="round"/>
</svg>
