<svg width="17" height="17" viewBox="0 0 17 17" fill="none" xmlns="http://www.w3.org/2000/svg">
<path d="M7.70837 4.54159H9.29171V6.12492H7.70837V4.54159ZM7.70837 7.70825H9.29171V12.4583H7.70837V7.70825ZM8.50004 0.583252C4.13004 0.583252 0.583374 4.12992 0.583374 8.49992C0.583374 12.8699 4.13004 16.4166 8.50004 16.4166C12.87 16.4166 16.4167 12.8699 16.4167 8.49992C16.4167 4.12992 12.87 0.583252 8.50004 0.583252ZM8.50004 14.8333C5.00879 14.8333 2.16671 11.9912 2.16671 8.49992C2.16671 5.00867 5.00879 2.16659 8.50004 2.16659C11.9913 2.16659 14.8334 5.00867 14.8334 8.49992C14.8334 11.9912 11.9913 14.8333 8.50004 14.8333Z" fill="#7D7D7D"/>
</svg>
