<svg fill="none" height="13" viewBox="0 0 11 13" width="11" xmlns="http://www.w3.org/2000/svg"><path d="m6.04163 1.62508v.54167h-1.08334v-.54167zm-.54167 3.85125 2.91417.95875 1.29458.4225-.60667 2.15042c-.2925-.1625-.50916-.38459-.6175-.50917l-.81791-.93708-.81792.93167c-.18417.21666-.69333.715-1.34875.715s-1.16458-.49834-1.34875-.715l-.81792-.93167-.81791.93167c-.10834.12458-.325.34125-.6175.50375l-.61209-2.14501 1.3-.42791zm1.625-4.934582h-3.25v1.625002h-1.625c-.59583 0-1.08333.4875-1.08333 1.08333v2.5025l-.698753.2275c-.140834.04334-.26.14083-.325.27084-.0650004.12999-.0812503.28166-.0325.42249l1.029163 3.61829h.02709c.86666 0 1.63583-.47662 2.16666-1.08328.53084.60666 1.3 1.08328 2.16667 1.08328s1.63583-.47662 2.16667-1.08328c.53083.60666 1.3 1.08328 2.16666 1.08328h.02709l1.02372-3.61829c.0434-.14083.0325-.2925-.0325-.42249-.065-.13001-.1841-.2275-.325-.27084l-.69331-.2275v-2.5025c0-.59583-.4875-1.08333-1.08333-1.08333h-1.625zm-4.875 4.858752v-2.15042h6.5v2.15042l-3.25-1.06709zm5.41667 5.2596c-.66084.4604-1.41375.6933-2.16667.6933s-1.50583-.2329-2.16667-.6933c-.66083.4604-1.41375.715-2.16666.715h-1.0833366v1.0833h1.0833366c.7475 0 1.48416-.1896 2.16666-.5362.6825.3466 1.42459.5254 2.16667.5254s1.48417-.1734 2.16667-.5254c.6825.352 1.41916.5362 2.16666.5362h1.08331v-1.0833h-1.08331c-.75291 0-1.50583-.2546-2.16666-.715z" fill="#333"/></svg>