<?xml version="1.0" encoding="utf-8"?>
<!-- Generator: Adobe Illustrator 24.3.2, SVG Export Plug-In . SVG Version: 6.00 Build 0)  -->
<svg version="1.1" id="レイヤー_1" xmlns="http://www.w3.org/2000/svg" xmlns:xlink="http://www.w3.org/1999/xlink" x="0px"
	 y="0px" viewBox="0 0 963.78 510.24" style="enable-background:new 0 0 963.78 510.24;" xml:space="preserve">
<style type="text/css">
	.st0{fill:#45B4D3;}
	.st1{fill:#EE8381;}
</style>
<g>
	<g>
		<g>
			<path class="st0" d="M559.9,90.14v24.74v7.77h7.77h24.74v171.54H388.35V90.14H559.9 M567.66,82.37H380.58v219.58h219.58V114.87
				h-32.5V82.37L567.66,82.37z"/>
		</g>
		<polygon class="st0" points="567.66,65.69 616.62,65.69 616.62,115.12 638.37,42.78 		"/>
		<rect x="435.04" y="132.63" class="st0" width="14.61" height="119.06"/>
		<rect x="483" y="132.63" class="st0" width="14.61" height="119.06"/>
		<rect x="530.66" y="132.63" class="st1" width="14.61" height="119.06"/>
	</g>
	<g>
		<path class="st0" d="M177.44,363.93H97.99v78.09h17.08v-17.19h63.64c25.69,0.09,25.42-22.49,25.42-22.49v-17.37
			C203.68,363.01,177.44,363.93,177.44,363.93z M187.4,408.41h-72.56V380.3h72.56V408.41z"/>
		<path class="st0" d="M304.26,371.37c0,0-8.92-8.53-20.99-8.35h-44.3c0,0-14.27-0.51-22.43,10.28c0,0-6.4,8.43-6.93,19.12v21.2
			c0,0-0.17,11.67,9.33,20.21c0,0,10.56,9.08,20.71,9.08h43.89c0,0,13.17-0.28,22.08-10.19c0,0,8.23-7.2,8.37-19.81v-21.96
			C314,390.96,313.55,378.86,304.26,371.37z M294.66,424.74h-65.84v-43.75h65.84V424.74z"/>
		<path class="st0" d="M425.15,404.37v-18.18c0.2-8.68-6.58-15.36-6.58-15.36c-7.54-7.41-17.97-6.86-17.97-6.86h-81.2v77.91H336
			v-17.14h55.55l10.97,17.14h21.81l-12.07-18.93C425.15,417.67,425.15,404.37,425.15,404.37z M408.28,408.69H336V380.3h72.28V408.69
			z"/>
		<path class="st0" d="M642.98,404.37v-18.18c0.2-8.68-6.58-15.36-6.58-15.36c-7.54-7.41-17.97-6.86-17.97-6.86h-81.2v77.91h16.6
			v-17.14h55.55l10.97,17.14h21.81l-12.07-18.93C642.98,417.67,642.98,404.37,642.98,404.37z M626.11,408.69h-72.28V380.3h72.28
			V408.69z"/>
		<polygon class="st0" points="434.56,363.97 427.02,380.3 470.77,380.3 461.03,441.88 477.63,441.88 488.6,380.3 526.87,380.3 
			534.14,363.97 		"/>
		<rect x="650.36" y="363.33" class="st0" width="16.96" height="78.55"/>
		<polygon class="st0" points="872.52,362.31 872.52,393.61 800.09,393.61 800.09,362.31 783.13,362.31 783.13,441.88 
			800.09,441.88 800.09,410.57 872.52,410.57 872.52,441.88 889.48,441.88 889.48,362.31 		"/>
		<path class="st0" d="M776.36,380.3v-17.99H699c0,0-11.17-0.58-18.28,8.6c0,0-5.45,6.69-5.45,15.43v33.19c0,0,0.41,8.92,6.86,15.5
			c0,0,6.58,6.86,17.83,6.86h76.4V423.5H694.2v-42.93L776.36,380.3z"/>
	</g>
</g>
</svg>
