<?xml version="1.0" encoding="utf-8"?>
<!-- Generator: Adobe Illustrator 24.3.2, SVG Export Plug-In . SVG Version: 6.00 Build 0)  -->
<svg version="1.1" id="レイヤー_1" xmlns="http://www.w3.org/2000/svg" xmlns:xlink="http://www.w3.org/1999/xlink" x="0px"
	 y="0px" viewBox="0 0 1360.63 170.08" style="enable-background:new 0 0 1360.63 170.08;" xml:space="preserve">
<style type="text/css">
	.st0{fill:#45B4D3;}
	.st1{fill:#EE8381;}
</style>
<g>
	<g>
		<path class="st0" d="M114.65,38.23v12.85v3.87h3.87h11.84v88.49H31.95V38.23H114.65 M118.52,34.36H28.07v112.96h106.16V51.07
			h-15.71V34.36L118.52,34.36z"/>
	</g>
	<polygon class="st0" points="118.52,25.78 142.19,25.78 142.19,51.2 152.71,13.99 	"/>
	<rect x="54.4" y="60.21" class="st0" width="7.06" height="61.25"/>
	<rect x="77.59" y="60.21" class="st0" width="7.06" height="61.25"/>
	<rect x="100.63" y="60.21" class="st1" width="7.06" height="61.25"/>
	<g>
		<path class="st0" d="M301.13,34.4H186.06v113.11h24.74v-24.9h92.19c37.22,0.13,36.82-32.58,36.82-32.58V64.86
			C339.15,33.07,301.13,34.4,301.13,34.4z M315.57,98.83h-105.1V58.1h105.1V98.83z"/>
		<path class="st0" d="M484.85,45.17c0,0-12.91-12.35-30.4-12.1h-64.17c0,0-20.67-0.74-32.48,14.9c0,0-9.27,12.21-10.03,27.7v30.72
			c0,0-0.24,16.91,13.51,29.28c0,0,15.3,13.15,30,13.15h63.58c0,0,19.07-0.4,31.99-14.75c0,0,11.92-10.43,12.12-28.69V73.55
			C498.95,73.55,498.3,56.02,484.85,45.17z M470.94,122.48h-95.37V59.1h95.37V122.48z"/>
		<path class="st0" d="M659.96,92.98V66.65c0.28-12.57-9.54-22.25-9.54-22.25c-10.93-10.73-26.03-9.93-26.03-9.93H506.78v112.85
			h24.04v-24.83h80.46l15.89,24.83h31.59l-17.48-27.42C659.96,112.24,659.96,92.98,659.96,92.98z M635.52,99.23h-104.7V58.1h104.7
			V99.23z"/>
		<path class="st0" d="M975.48,92.98V66.65c0.28-12.57-9.54-22.25-9.54-22.25c-10.93-10.73-26.03-9.93-26.03-9.93H822.3v112.85
			h24.04v-24.83h80.46l15.89,24.83h31.59l-17.48-27.42C975.48,112.24,975.48,92.98,975.48,92.98z M951.05,99.23h-104.7V58.1h104.7
			V99.23z"/>
		<polygon class="st0" points="673.59,34.45 662.66,58.1 726.04,58.1 711.94,147.31 735.98,147.31 751.87,58.1 807.3,58.1 
			817.83,34.45 		"/>
		<rect x="986.18" y="33.53" class="st0" width="24.57" height="113.78"/>
		<polygon class="st0" points="1307.99,32.05 1307.99,77.39 1203.07,77.39 1203.07,32.05 1178.5,32.05 1178.5,147.31 
			1203.07,147.31 1203.07,101.96 1307.99,101.96 1307.99,147.31 1332.56,147.31 1332.56,32.05 		"/>
		<path class="st0" d="M1168.7,58.1V32.05h-112.05c0,0-16.18-0.84-26.48,12.45c0,0-7.89,9.69-7.89,22.35v48.08
			c0,0,0.6,12.91,9.93,22.45c0,0,9.54,9.93,25.83,9.93h110.66v-26.62h-119.01V58.5L1168.7,58.1z"/>
	</g>
</g>
</svg>
