<?xml version="1.0" encoding="utf-8"?>
<!-- Generator: Adobe Illustrator 24.3.2, SVG Export Plug-In . SVG Version: 6.00 Build 0)  -->
<svg version="1.1" id="レイヤー_1" xmlns="http://www.w3.org/2000/svg" xmlns:xlink="http://www.w3.org/1999/xlink" x="0px"
	 y="0px" viewBox="0 0 1190.55 340.16" style="enable-background:new 0 0 1190.55 340.16;" xml:space="preserve">
<style type="text/css">
	.st0{fill:#45B4D3;}
	.st1{fill:#EE8381;}
</style>
<g>
	<g>
		<g>
			<path class="st0" d="M239.77,82.85v24.74v7.77h7.77h24.74V286.9H68.23V82.85H239.77 M247.54,75.08H60.46v219.58h219.58V107.59
				h-32.5V75.08L247.54,75.08z"/>
		</g>
		<polygon class="st0" points="247.54,58.41 296.5,58.41 296.5,107.84 318.25,35.49 		"/>
		<rect x="114.91" y="125.35" class="st0" width="14.61" height="119.06"/>
		<rect x="162.88" y="125.35" class="st0" width="14.61" height="119.06"/>
		<rect x="210.54" y="125.35" class="st1" width="14.61" height="119.06"/>
	</g>
	<g>
		<path class="st0" d="M422.69,148.71h-79.44v78.09h17.08v-17.19h63.64c25.69,0.09,25.42-22.49,25.42-22.49v-17.37
			C448.93,147.8,422.69,148.71,422.69,148.71z M432.65,193.2H360.1v-28.12h72.56V193.2z"/>
		<path class="st0" d="M549.51,156.15c0,0-8.92-8.53-20.99-8.35h-44.3c0,0-14.27-0.51-22.43,10.28c0,0-6.4,8.43-6.93,19.12v21.2
			c0,0-0.17,11.67,9.33,20.21c0,0,10.56,9.08,20.71,9.08h43.89c0,0,13.17-0.28,22.08-10.19c0,0,8.23-7.2,8.37-19.81v-21.96
			C559.25,175.74,558.8,163.64,549.51,156.15z M539.91,209.52h-65.84v-43.75h65.84V209.52z"/>
		<path class="st0" d="M670.4,189.16v-18.18c0.2-8.68-6.58-15.36-6.58-15.36c-7.54-7.41-17.97-6.86-17.97-6.86h-81.2v77.91h16.6
			v-17.14h55.55l10.97,17.14h21.81l-12.07-18.93C670.4,202.45,670.4,189.16,670.4,189.16z M653.53,193.47h-72.28v-28.39h72.28
			V193.47z"/>
		<path class="st0" d="M888.22,189.16v-18.18c0.2-8.68-6.58-15.36-6.58-15.36c-7.54-7.41-17.97-6.86-17.97-6.86h-81.2v77.91h16.6
			v-17.14h55.55l10.97,17.14h21.81l-12.07-18.93C888.22,202.45,888.22,189.16,888.22,189.16z M871.35,193.47h-72.28v-28.39h72.28
			V193.47z"/>
		<polygon class="st0" points="679.81,148.75 672.27,165.08 716.02,165.08 706.28,226.66 722.88,226.66 733.85,165.08 
			772.12,165.08 779.39,148.75 		"/>
		<rect x="895.61" y="148.12" class="st0" width="16.96" height="78.55"/>
		<polygon class="st0" points="1117.77,147.09 1117.77,178.4 1045.34,178.4 1045.34,147.09 1028.38,147.09 1028.38,226.66 
			1045.34,226.66 1045.34,195.36 1117.77,195.36 1117.77,226.66 1134.73,226.66 1134.73,147.09 		"/>
		<path class="st0" d="M1021.61,165.08v-17.99h-77.36c0,0-11.17-0.58-18.28,8.6c0,0-5.45,6.69-5.45,15.43v33.19
			c0,0,0.41,8.92,6.86,15.5c0,0,6.58,6.86,17.83,6.86h76.4v-18.38h-82.16v-42.93L1021.61,165.08z"/>
	</g>
</g>
</svg>
