<svg width="13" height="14" viewBox="0 0 9 10" fill="none" xmlns="http://www.w3.org/2000/svg">
<path d="M8.23712 5.51083L7.61831 5.24881V2.916C7.61861 2.80538 7.59544 2.69857 7.55383 2.60197C7.49145 2.45672 7.38776 2.33413 7.25706 2.24718C7.12663 2.16039 6.96709 2.1091 6.79836 2.10923H5.53754V0.507798C5.53754 0.438392 5.52299 0.371023 5.49653 0.310098C5.45733 0.218627 5.39226 0.141603 5.30997 0.0868083C5.22798 0.0321607 5.12728 0 5.02121 0H3.59433C3.52361 0 3.455 0.0141896 3.3932 0.0400357C3.30022 0.0787681 3.22179 0.142759 3.16623 0.223583C3.11068 0.304389 3.07799 0.403606 3.07799 0.507798V2.10923H1.81719C1.7046 2.10923 1.59617 2.13188 1.49783 2.1728C1.35018 2.23433 1.2257 2.33617 1.13718 2.46478C1.04894 2.59322 0.996955 2.74987 0.996955 2.91602V5.24883L0.378426 5.51083C0.071532 5.64072 -0.0773156 5.98485 0.0400533 6.29245L1.34395 9.39857H4.30763H7.27164L8.57523 6.29245C8.69285 5.98485 8.54372 5.64072 8.23712 5.51083ZM3.64572 0.992504H4.96981V1.55087H3.64572V0.992504ZM7.05088 5.00828L4.66114 3.99605C4.43566 3.90046 4.17987 3.90046 3.95409 3.99605L1.56465 5.00828V2.916C1.56465 2.88094 1.57148 2.84892 1.58427 2.81941C1.60328 2.77528 1.63565 2.73669 1.67607 2.70982C1.71677 2.68309 1.76372 2.66774 1.81719 2.6676H6.79836C6.83401 2.6676 6.86669 2.67446 6.89641 2.68704C6.94155 2.70574 6.98077 2.73744 7.00811 2.77733C7.03516 2.81739 7.05089 2.86355 7.05089 2.916V5.00828H7.05088Z" fill="white"/>
</svg>
