<svg width="14" height="14" viewBox="0 0 14 14" fill="none" xmlns="http://www.w3.org/2000/svg">
<path d="M12.7582 8.20887L11.8514 7.81856V4.34364C11.8518 4.17886 11.8178 4.01975 11.7569 3.87587C11.6655 3.6595 11.5135 3.47689 11.322 3.34737C11.1309 3.21809 10.8971 3.14169 10.6498 3.14188H8.80221V0.75641C8.80221 0.653023 8.78088 0.552672 8.74211 0.461918C8.68466 0.325664 8.58931 0.21093 8.46873 0.129309C8.34858 0.0479063 8.201 0 8.04558 0H5.95463C5.851 0 5.75046 0.0211367 5.65989 0.0596367C5.52364 0.117332 5.40871 0.212652 5.32728 0.333047C5.24588 0.453414 5.19798 0.601207 5.19798 0.75641V3.14188H3.35041C3.18542 3.14188 3.02653 3.17562 2.88242 3.23657C2.66605 3.32823 2.48364 3.47993 2.35392 3.6715C2.22462 3.86282 2.14844 4.09618 2.14844 4.34366V7.81859L1.24205 8.20887C0.792323 8.40235 0.574202 8.91496 0.746194 9.37316L2.65692 14H6.9999H11.3433L13.2536 9.37316C13.426 8.91496 13.2075 8.40235 12.7582 8.20887ZM6.02994 1.47842H7.97025V2.31016H6.02994V1.47842ZM11.0198 7.46028L7.51793 5.95246C7.18751 5.81008 6.81268 5.81008 6.48182 5.95246L2.98034 7.46028V4.34364C2.98034 4.29141 2.99035 4.24372 3.00908 4.19975C3.03694 4.13402 3.08439 4.07654 3.14361 4.03651C3.20325 3.9967 3.27205 3.97384 3.35041 3.97362H10.6498C10.7021 3.97362 10.7499 3.98385 10.7935 4.00258C10.8596 4.03044 10.9171 4.07766 10.9572 4.13708C10.9968 4.19675 11.0199 4.26552 11.0199 4.34364V7.46028H11.0198Z" fill="#415B65"/>
<path d="M5.47549 4.66699H4.18164V5.96063H5.47549V4.66699Z" fill="#415B65"/>
<path d="M9.81881 4.66699H8.52539V5.96063H9.81881V4.66699Z" fill="#415B65"/>
</svg>
