<svg width="14" height="15" viewBox="0 0 14 15" fill="none" xmlns="http://www.w3.org/2000/svg">
<path d="M13.2775 8.34294L12.3477 7.94626V4.41458C12.3482 4.24711 12.3134 4.0854 12.2508 3.93917C12.1571 3.71926 12.0013 3.53368 11.805 3.40204C11.609 3.27064 11.3693 3.193 11.1158 3.19319H9.22145V0.768764C9.22145 0.663689 9.19958 0.561698 9.15983 0.469462C9.10093 0.330983 9.00317 0.214375 8.87953 0.13142C8.75634 0.0486887 8.60504 0 8.44568 0H6.30185C6.19559 0 6.09251 0.0214819 5.99965 0.0606107C5.85995 0.119248 5.74212 0.216125 5.65863 0.338486C5.57517 0.460819 5.52605 0.611026 5.52605 0.768764V3.19319H3.63176C3.46259 3.19319 3.29968 3.22749 3.15193 3.28943C2.93009 3.38258 2.74306 3.53676 2.61006 3.73146C2.47748 3.92591 2.39938 4.16308 2.39938 4.41461V7.94629L1.47006 8.34294C1.00896 8.53958 0.785325 9.06057 0.961668 9.52625L2.92072 14.2287H7.37355H11.8269L13.7855 9.52625C13.9622 9.06057 13.7381 8.53958 13.2775 8.34294ZM6.37906 1.50257H8.36845V2.34789H6.37906V1.50257ZM11.4952 7.58212L7.90468 6.04968C7.56591 5.90497 7.1816 5.90497 6.84237 6.04968L3.25233 7.58212V4.41458C3.25233 4.3615 3.26259 4.31303 3.28179 4.26835C3.31036 4.20154 3.359 4.14312 3.41973 4.10244C3.48087 4.06197 3.55141 4.03874 3.63176 4.03852H11.1158C11.1693 4.03852 11.2184 4.04891 11.2631 4.06795C11.3309 4.09627 11.3898 4.14426 11.4309 4.20465C11.4716 4.26529 11.4952 4.33518 11.4952 4.41458V7.58212H11.4952Z" fill="#1877B7"/>
<path d="M5.81059 4.74292H4.48401V6.05768H5.81059V4.74292Z" fill="#1877B7"/>
<path d="M10.2633 4.74292H8.93713V6.05768H10.2633V4.74292Z" fill="#1877B7"/>
</svg>
