<svg fill="none" height="15" viewBox="0 0 13 15" width="13" xmlns="http://www.w3.org/2000/svg"><g fill="#c1c1c1"><path d="m12.4292 8.34294-.9337-.39668v-3.53168c.0004-.16747-.0345-.32918-.0973-.47541-.0941-.21991-.2506-.40549-.4478-.53713-.1968-.1314-.4376-.20904-.6922-.20885h-1.90244v-2.424426c0-.105075-.02196-.207066-.06189-.299302-.05915-.138479-.15733-.255087-.2815-.338042-.12372-.0827313-.27568-.13142-.43572-.13142h-2.15306c-.10671 0-.21024.0214819-.30349.0606107-.1403.0586373-.25864.1555143-.34249.2778753-.08382.122333-.13315.27254-.13315.430278v2.424426h-1.90245c-.16989 0-.3335.0343-.48188.09624-.2228.09315-.41063.24733-.5442.44203-.13315.19445-.2116.43162-.2116.68315v3.53168l-.933311.39665c-.463082.19664-.687683.71763-.5105814 1.18331l1.9674824 4.70245h4.47199 4.47249l1.967-4.70245c.1775-.46568-.0475-.98667-.5102-1.18331zm-6.92807-6.84037h1.99795v.84532h-1.99795zm5.13817 6.07955-3.60597-1.53244c-.34024-.14471-.7262-.14471-1.06689 0l-3.60549 1.53244v-3.16754c0-.05308.01031-.10155.02959-.14623.02869-.06681.07755-.12523.13853-.16591.06141-.04047.13225-.0637.21294-.06392h7.51619c.0538 0 .1031.01039.148.02943.0681.02832.1273.07631.1685.1367.0409.06064.0646.13053.0646.20993z"/><path d="m4.93031 4.74292h-1.33229v1.31476h1.33229z"/><path d="m9.40203 4.74292h-1.33184v1.31476h1.33184z"/></g></svg>