<svg width="16" height="16" viewBox="0 0 16 16" fill="none" xmlns="http://www.w3.org/2000/svg">
<circle cx="8" cy="8" r="8" fill="#E1E9F5"/>
<path d="M12.2371 8.51083L11.6183 8.24881V5.916C11.6186 5.80538 11.5954 5.69857 11.5538 5.60197C11.4914 5.45672 11.3878 5.33413 11.2571 5.24718C11.1266 5.16039 10.9671 5.1091 10.7984 5.10923H9.53754V3.5078C9.53754 3.43839 9.52299 3.37102 9.49653 3.3101C9.45733 3.21863 9.39226 3.1416 9.30997 3.08681C9.22798 3.03216 9.12728 3 9.02121 3H7.59433C7.52361 3 7.455 3.01419 7.3932 3.04004C7.30022 3.07877 7.22179 3.14276 7.16623 3.22358C7.11068 3.30439 7.07799 3.40361 7.07799 3.5078V5.10923H5.81719C5.7046 5.10923 5.59617 5.13188 5.49783 5.1728C5.35018 5.23433 5.2257 5.33617 5.13718 5.46478C5.04894 5.59322 4.99695 5.74987 4.99695 5.91602V8.24883L4.37843 8.51083C4.07153 8.64072 3.92268 8.98485 4.04005 9.29245L5.34395 12.3986H8.30763H11.2716L12.5752 9.29245C12.6928 8.98485 12.5437 8.64072 12.2371 8.51083ZM7.64572 3.9925H8.96981V4.55087H7.64572V3.9925ZM11.0509 8.00828L8.66114 6.99605C8.43566 6.90046 8.17987 6.90046 7.95409 6.99605L5.56465 8.00828V5.916C5.56465 5.88094 5.57148 5.84892 5.58427 5.81941C5.60328 5.77528 5.63565 5.73669 5.67607 5.70982C5.71677 5.68309 5.76372 5.66774 5.81719 5.6676H10.7984C10.834 5.6676 10.8667 5.67446 10.8964 5.68704C10.9415 5.70574 10.9808 5.73744 11.0081 5.77733C11.0352 5.81739 11.0509 5.86355 11.0509 5.916V8.00828H11.0509Z" fill="white"/>
<path d="M7.26733 6.13086H6.3844V6.99931H7.26733V6.13086Z" fill="white"/>
<path d="M10.2314 6.13086H9.34875V6.99931H10.2314V6.13086Z" fill="white"/>
</svg>
