<svg width="13" height="9" viewBox="0 0 13 9" fill="none" xmlns="http://www.w3.org/2000/svg">
<path d="M11.2273 2.25H9.45455V0H1.18182C0.531818 0 0 0.50625 0 1.125V7.3125H1.18182C1.18182 8.24625 1.97364 9 2.95455 9C3.93545 9 4.72727 8.24625 4.72727 7.3125H8.27273C8.27273 8.24625 9.06454 9 10.0455 9C11.0264 9 11.8182 8.24625 11.8182 7.3125H13V4.5L11.2273 2.25ZM10.9318 3.09375L12.09 4.5H9.45455V3.09375H10.9318ZM2.95455 7.875C2.62955 7.875 2.36364 7.62187 2.36364 7.3125C2.36364 7.00313 2.62955 6.75 2.95455 6.75C3.27955 6.75 3.54545 7.00313 3.54545 7.3125C3.54545 7.62187 3.27955 7.875 2.95455 7.875ZM4.26636 6.1875C3.94136 5.84438 3.48045 5.625 2.95455 5.625C2.42864 5.625 1.96773 5.84438 1.64273 6.1875H1.18182V1.125H8.27273V6.1875H4.26636ZM10.0455 7.875C9.72045 7.875 9.45455 7.62187 9.45455 7.3125C9.45455 7.00313 9.72045 6.75 10.0455 6.75C10.3705 6.75 10.6364 7.00313 10.6364 7.3125C10.6364 7.62187 10.3705 7.875 10.0455 7.875Z" fill="#575861"/>
</svg>
