<svg width="13" height="12" viewBox="0 0 13 12" fill="none" xmlns="http://www.w3.org/2000/svg">
<path d="M2.77461 10.2875C3.02552 10.2875 3.22967 10.0972 3.22967 9.86306V6.68869C3.22967 6.45466 3.02552 6.26428 2.77461 6.26428C2.52363 6.26428 2.31946 6.45466 2.31946 6.68869V9.86306C2.31946 10.0972 2.52363 10.2875 2.77461 10.2875Z" fill="#333333"/>
<path d="M4.92527 10.2875C5.17625 10.2875 5.38042 10.0972 5.38042 9.86306V6.68869C5.38042 6.45466 5.17625 6.26428 4.92527 6.26428C4.67436 6.26428 4.47021 6.45466 4.47021 6.68869V9.86306C4.47024 10.0972 4.67439 10.2875 4.92527 10.2875Z" fill="#333333"/>
<path d="M7.07686 10.2875C7.32774 10.2875 7.53189 10.0972 7.53189 9.86306V6.68869C7.53189 6.45466 7.32774 6.26428 7.07686 6.26428C6.82585 6.26428 6.6217 6.45466 6.6217 6.68869V9.86306C6.6217 10.0972 6.82585 10.2875 7.07686 10.2875Z" fill="#333333"/>
<path d="M9.22786 10.2875C9.47877 10.2875 9.68292 10.0972 9.68292 9.86306V6.68869C9.68292 6.45466 9.47877 6.26428 9.22786 6.26428C8.97688 6.26428 8.77271 6.45466 8.77271 6.68869V9.86306C8.77273 10.0972 8.97688 10.2875 9.22786 10.2875Z" fill="#333333"/>
<path d="M10.8269 4.54784H10.6589V4.11134C10.6589 3.93592 10.5068 3.79235 10.3187 3.79235H10.0547C9.86661 3.79235 9.71254 3.93592 9.71254 4.11134V4.23843L9.71058 4.3005L7.18015 2.8844L7.04935 2.81096V2.81113L7.04583 2.8092L6.99583 2.89692C6.94782 2.98088 6.88781 3.05917 6.8178 3.13012L6.75013 3.19917L6.7358 3.21272L6.73648 3.2131L6.73372 3.21593L8.01037 3.92949L9.10969 4.54781H5.65988L2.73634 4.5446L4.71875 3.4365L5.11036 3.2184L5.10978 3.21786L5.11332 3.21593L5.02936 3.13014C4.95935 3.05919 4.89934 2.9809 4.85133 2.89694L4.80548 2.81654L4.80342 2.81242L4.80321 2.8126L4.80125 2.8092L3.14428 3.73625L2.29063 4.21166V4.11129C2.29063 3.93587 2.13656 3.7923 1.94853 3.7923H1.68447C1.49641 3.7923 1.34234 3.93587 1.34234 4.11129V4.54779H1.17424C0.528107 4.54779 0 5.04022 0 5.64267V10.9049C0 11.5074 0.528107 11.9999 1.17424 11.9999H10.8269C11.475 11.9999 12.0012 11.5074 12.0012 10.9049V5.64267C12.0012 5.04026 11.475 4.54784 10.8269 4.54784ZM1.03625 5.64274C1.03625 5.57188 1.09832 5.5141 1.17424 5.5141H10.8429L10.9409 5.57003C10.9549 5.58679 10.9669 5.61105 10.9669 5.64274V10.905C10.9669 10.9759 10.9049 11.0337 10.8269 11.0337H1.17424C1.09832 11.0337 1.03625 10.9759 1.03625 10.905V5.64274Z" fill="#333333"/>
<path d="M4.76562 1.03621V1.03996H5.59891V1.50025C5.24069 1.62486 4.99755 1.94845 4.99755 2.30839C4.99755 2.44509 5.03104 2.5749 5.09594 2.69597C5.14788 2.79292 5.22025 2.87946 5.30756 2.95217C5.47646 3.09398 5.69544 3.17189 5.92365 3.17189C6.1501 3.17189 6.36905 3.09398 6.53798 2.95217C6.62702 2.88119 6.69763 2.79467 6.75136 2.69597C6.81636 2.5749 6.84975 2.44509 6.84975 2.30839V2.22185H6.19831V2.30839C6.19831 2.33952 6.19283 2.37074 6.17986 2.40187C6.15012 2.47448 6.08333 2.53161 6.00163 2.55413C5.97747 2.561 5.95155 2.56449 5.92365 2.56449C5.89585 2.56449 5.86983 2.561 5.84391 2.55413C5.76407 2.53161 5.6973 2.47448 5.66764 2.40013C5.65459 2.37074 5.64899 2.33952 5.64899 2.30839C5.64899 2.16646 5.77151 2.05055 5.92365 2.05055H6.24849V1.03996H7.0818V0H4.76562V1.033V1.03621ZM5.15162 0.519078C5.15162 0.432537 5.22772 0.363319 5.32053 0.363319C5.41331 0.363319 5.48755 0.432537 5.48755 0.519078C5.48755 0.605594 5.41331 0.674813 5.32053 0.674813C5.22774 0.674813 5.15162 0.605594 5.15162 0.519078ZM6.35985 0.519078C6.35985 0.432537 6.43411 0.363319 6.52679 0.363319C6.61958 0.363319 6.69394 0.432537 6.69394 0.519078C6.69394 0.605594 6.61958 0.674813 6.52679 0.674813C6.43408 0.674813 6.35985 0.605594 6.35985 0.519078Z" fill="#333333"/>
</svg>
